<?xml version="1.0" encoding="iso-8859-1"?>
<!-- Generator: Adobe Illustrator 19.0.0, SVG Export Plug-In . SVG Version: 6.00 Build 0)  -->
<svg version="1.1" id="Layer_1" xmlns="http://www.w3.org/2000/svg" xmlns:xlink="http://www.w3.org/1999/xlink" x="0px" y="0px"
	 viewBox="0 0 512 512" style="enable-background:new 0 0 512 512;" xml:space="preserve">
<g transform="translate(1 1)">
	<path style="fill:#FFE100;" d="M502.467,255c0,136.533-110.933,247.467-247.467,247.467S7.533,391.533,7.533,255
		S118.467,7.533,255,7.533S502.467,118.467,502.467,255"/>
	<path style="fill:#FFA800;" d="M255,7.533c-4.267,0-8.533,0-12.8,0C372.76,14.36,476.867,122.733,476.867,255
		S372.76,495.64,242.2,502.467c4.267,0,8.533,0,12.8,0c136.533,0,247.467-110.933,247.467-247.467S391.533,7.533,255,7.533"/>
	<path style="fill:#FFFFFF;" d="M255,7.533c4.267,0,8.533,0,12.8,0C137.24,14.36,33.133,122.733,33.133,255
		S137.24,495.64,267.8,502.467c-4.267,0-8.533,0-12.8,0C118.467,502.467,7.533,391.533,7.533,255S118.467,7.533,255,7.533"/>
	<g>
		<path style="fill:#63D3FD;" d="M101.4,255c0,14.507-11.093,25.6-25.6,25.6S50.2,269.507,50.2,255c0-14.507,11.093-25.6,25.6-25.6
			S101.4,240.493,101.4,255"/>
		<path style="fill:#63D3FD;" d="M459.8,255c0,14.507-11.093,25.6-25.6,25.6c-14.507,0-25.6-11.093-25.6-25.6
			c0-14.507,11.093-25.6,25.6-25.6S459.8,240.493,459.8,255"/>
	</g>
	<path d="M255,511C114.2,511-1,395.8-1,255S114.2-1,255-1s256,115.2,256,256S395.8,511,255,511z M255,16.067
		C123.587,16.067,16.067,123.587,16.067,255S123.587,493.933,255,493.933S493.933,386.413,493.933,255S386.413,16.067,255,16.067z"
		/>
	<path d="M186.733,186.733c-5.12,0-8.533-3.413-8.533-8.533c0-14.507-11.093-25.6-25.6-25.6S127,163.693,127,178.2
		c0,5.12-3.413,8.533-8.533,8.533s-8.533-3.413-8.533-8.533c0-23.893,18.773-42.667,42.667-42.667s42.667,18.773,42.667,42.667
		C195.267,183.32,191.853,186.733,186.733,186.733z"/>
	<path d="M391.533,186.733c-5.12,0-8.533-3.413-8.533-8.533c0-14.507-11.093-25.6-25.6-25.6s-25.6,11.093-25.6,25.6
		c0,5.12-3.413,8.533-8.533,8.533s-8.533-3.413-8.533-8.533c0-23.893,18.773-42.667,42.667-42.667
		c23.893,0,42.667,18.773,42.667,42.667C400.067,183.32,396.653,186.733,391.533,186.733z"/>
	<path d="M75.8,289.133c-18.773,0-34.133-15.36-34.133-34.133s15.36-34.133,34.133-34.133s34.133,15.36,34.133,34.133
		S94.573,289.133,75.8,289.133z M75.8,237.933c-9.387,0-17.067,7.68-17.067,17.067c0,9.387,7.68,17.067,17.067,17.067
		s17.067-7.68,17.067-17.067S85.187,237.933,75.8,237.933z"/>
	<path d="M434.2,289.133c-18.773,0-34.133-15.36-34.133-34.133s15.36-34.133,34.133-34.133s34.133,15.36,34.133,34.133
		S452.973,289.133,434.2,289.133z M434.2,237.933c-9.387,0-17.067,7.68-17.067,17.067c0,9.387,7.68,17.067,17.067,17.067
		s17.067-7.68,17.067-17.067S443.587,237.933,434.2,237.933z"/>
	<path d="M255,400.067c-54.613,0-104.96-27.307-134.827-71.68c-2.56-4.267-1.707-9.387,2.56-11.947s9.387-1.707,11.947,2.56
		c26.453,40.107,71.68,64,120.32,64s93.867-23.893,120.32-64.853c2.56-4.267,7.68-5.12,11.947-2.56s5.12,7.68,2.56,11.947
		C359.96,372.76,309.613,400.067,255,400.067z"/>
</g>
<g>
</g>
<g>
</g>
<g>
</g>
<g>
</g>
<g>
</g>
<g>
</g>
<g>
</g>
<g>
</g>
<g>
</g>
<g>
</g>
<g>
</g>
<g>
</g>
<g>
</g>
<g>
</g>
<g>
</g>
</svg>