<?xml version="1.0" encoding="iso-8859-1"?>
<!-- Generator: Adobe Illustrator 19.0.0, SVG Export Plug-In . SVG Version: 6.00 Build 0)  -->
<svg version="1.1" id="Layer_1" xmlns="http://www.w3.org/2000/svg" xmlns:xlink="http://www.w3.org/1999/xlink" x="0px" y="0px"
	 viewBox="0 0 512 512" style="enable-background:new 0 0 512 512;" xml:space="preserve">
<g transform="translate(1 1)">
	<path style="fill:#FFE100;" d="M502.467,255c0,136.533-110.933,247.467-247.467,247.467S7.533,391.533,7.533,255
		S118.467,7.533,255,7.533S502.467,118.467,502.467,255"/>
	<path style="fill:#FFA800;" d="M255,7.533c-4.267,0-8.533,0-12.8,0C372.76,14.36,476.867,122.733,476.867,255
		S372.76,495.64,242.2,502.467c4.267,0,8.533,0,12.8,0c136.533,0,247.467-110.933,247.467-247.467S391.533,7.533,255,7.533"/>
	<path style="fill:#FFFFFF;" d="M255,7.533c4.267,0,8.533,0,12.8,0C137.24,14.36,33.133,122.733,33.133,255
		S137.24,495.64,267.8,502.467c-4.267,0-8.533,0-12.8,0C118.467,502.467,7.533,391.533,7.533,255S118.467,7.533,255,7.533"/>
	<path d="M357.4,203.8c-23.893,0-42.667-18.773-42.667-42.667c0-5.12,3.413-8.533,8.533-8.533s8.533,3.413,8.533,8.533
		c0,14.507,11.093,25.6,25.6,25.6s25.6-11.093,25.6-25.6c0-5.12,3.413-8.533,8.533-8.533s8.533,3.413,8.533,8.533
		C400.067,185.027,381.293,203.8,357.4,203.8z"/>
	<path d="M152.6,203.8c-23.893,0-42.667-18.773-42.667-42.667c0-5.12,3.413-8.533,8.533-8.533s8.533,3.413,8.533,8.533
		c0,14.507,11.093,25.6,25.6,25.6s25.6-11.093,25.6-25.6c0-5.12,3.413-8.533,8.533-8.533c5.12,0,8.533,3.413,8.533,8.533
		C195.267,185.027,176.493,203.8,152.6,203.8z"/>
	<path d="M255,511C114.2,511-1,395.8-1,255S114.2-1,255-1s256,115.2,256,256S395.8,511,255,511z M255,16.067
		C123.587,16.067,16.067,123.587,16.067,255S123.587,493.933,255,493.933S493.933,386.413,493.933,255S386.413,16.067,255,16.067z"
		/>
	<path d="M357.4,357.4c-2.56,0-5.973-1.707-7.68-4.267c-19.627-34.987-55.467-55.467-94.72-55.467s-75.093,20.48-94.72,55.467
		c-2.56,4.267-7.68,5.12-11.947,3.413c-4.267-2.56-5.12-7.68-3.413-11.947c23.893-40.107,64.853-64,110.08-64
		s86.187,23.893,110.08,64c2.56,4.267,0.853,9.387-3.413,11.947C359.96,357.4,359.107,357.4,357.4,357.4z"/>
	<path d="M365.933,135.533c-23.893,0-42.667-18.773-42.667-42.667c0-5.12,3.413-8.533,8.533-8.533s8.533,3.413,8.533,8.533
		c0,14.507,11.093,25.6,25.6,25.6c5.12,0,8.533,3.413,8.533,8.533C374.465,132.119,371.053,135.533,365.933,135.533z"/>
	<path d="M144.067,135.533c-5.12,0-8.533-3.413-8.533-8.533s3.413-8.533,8.533-8.533c14.507,0,25.6-11.093,25.6-25.6
		c0-5.12,3.413-8.533,8.533-8.533c5.12,0,8.533,3.413,8.533,8.533C186.733,116.76,167.96,135.533,144.067,135.533z"/>
</g>
<g>
</g>
<g>
</g>
<g>
</g>
<g>
</g>
<g>
</g>
<g>
</g>
<g>
</g>
<g>
</g>
<g>
</g>
<g>
</g>
<g>
</g>
<g>
</g>
<g>
</g>
<g>
</g>
<g>
</g>
</svg>
